<svg width="24" height="24" viewBox="0 0 24 24" fill="none" xmlns="http://www.w3.org/2000/svg">
<path d="M2 12C2 6.47714 6.47714 2 12 2C17.5229 2 22 6.47714 22 12C22 17.5229 17.5229 22 12 22C6.47714 22 2 17.5229 2 12Z" fill="#A1A1A1"/>
<path fill-rule="evenodd" clip-rule="evenodd" d="M11.7976 2C11.7504 6.11407 11.4814 8.4165 9.94893 9.94893C8.4165 11.4814 6.11407 11.7504 2 11.7976V12.3947C6.11407 12.4419 8.4165 12.7109 9.94893 14.2434C11.4573 15.7517 11.7416 18.0062 11.7953 22H12.3971C12.4506 18.0062 12.735 15.7517 14.2434 14.2434C15.7517 12.735 18.0062 12.4506 22 12.3971V11.7952C18.0062 11.7416 15.7517 11.4573 14.2434 9.94893C12.7109 8.4165 12.4419 6.11407 12.3947 2H11.7976Z" fill="black"/>
</svg>