<svg width="24" height="24" viewBox="0 0 24 24" fill="none" xmlns="http://www.w3.org/2000/svg">
<path d="M12.2059 21.0479C9.52936 20.9635 6.98405 20.8979 4.43873 20.7995C3.8903 20.776 3.33248 20.6917 2.79811 20.5651C1.79498 20.3307 1.10123 19.726 0.744983 18.737C0.459045 17.9401 0.35592 17.1198 0.28092 16.2854C0.116858 14.326 0.116858 12.3667 0.196545 10.4073C0.24342 9.30103 0.271545 8.18541 0.566858 7.11197C0.744983 6.46978 0.960608 5.84166 1.48092 5.37759C2.02936 4.88541 2.67155 4.59009 3.4028 4.55728C5.40905 4.45884 7.41061 4.33697 9.41686 4.31822C12.1169 4.29009 14.8215 4.32759 17.5215 4.37916C18.6887 4.40259 19.8653 4.46353 21.0231 4.61353C22.0825 4.75416 22.8747 5.34478 23.2965 6.37603C23.62 7.16822 23.7419 7.99791 23.8122 8.84166C23.995 10.9557 23.9997 13.0698 23.8965 15.1838C23.845 16.2573 23.7934 17.3354 23.4887 18.3807C23.1419 19.5807 22.4059 20.3729 21.1778 20.6448C20.6997 20.7479 20.2028 20.7854 19.7153 20.8042C17.1653 20.8932 14.62 20.9729 12.2059 21.0479ZM9.61373 15.7182C11.7512 14.612 13.8653 13.5151 16.0215 12.3948C13.87 11.2698 11.7559 10.1682 9.61373 9.04791C9.61373 11.2838 9.61373 13.4823 9.61373 15.7182Z" fill="white"/>
</svg>
