<svg width="42" height="30" viewBox="0 0 42 30" fill="none" xmlns="http://www.w3.org/2000/svg">
<mask id="mask0_1501_723" style="mask-type:alpha" maskUnits="userSpaceOnUse" x="0" y="0" width="42" height="30">
<path d="M16.9356 0.0256985C17.8396 0.0436112 18.7457 -0.0522745 19.6476 0.0425575C19.7291 1.03724 20.0319 1.9961 20.2065 2.97603C19.5079 2.83589 18.7955 2.87804 18.0894 2.87066C17.9836 2.63885 17.8862 2.40809 17.7793 2.18049C17.4987 1.45977 17.1505 0.765388 16.9324 0.0214837L16.9356 0.0256985ZM20.758 0.315463C22.3924 0.202718 24.5 1.05831 26 1.68526C27.284 2.32906 28.5955 2.995 30.0309 3.22154C31.0486 3.38001 32.0828 3.40516 33.1071 3.29635C33.1695 3.29108 33.142 3.28054 33.1643 3.368C33.5305 4.81577 33.8756 6.28145 34.2228 7.73554C34.594 9.28095 34.9624 10.8264 35.3279 12.3718C35.0104 12.5404 34.6621 12.6131 34.3392 12.7606C34.1783 12.8386 34.0217 12.9186 33.8576 12.9945C32.6022 13.6741 31.6833 14.8269 30.8767 15.9733C32.2094 15.9733 33.5411 15.9596 34.8738 15.9807C43.1623 16.5918 41.7766 30 35.9324 30L4.86811 29.9874C-0.72951 30.0011 -3.53573 16.0692 7.9305 15.9733C7.0265 13.7511 6.90371 11.2507 7.49014 8.93359C7.51555 8.57639 7.79924 8.85667 7.9866 8.92305C8.23325 9.08637 8.48306 9.23916 8.74241 9.38562C9.07567 9.55747 9.4 9.74597 9.71416 9.9504C9.26004 11.5004 9.40718 13.1673 9.91105 14.692C10.0794 15.1261 10.218 15.5739 10.4403 15.9838C16.1269 15.9775 21.8127 15.9775 27.4978 15.9838C28.4918 14.5761 29.4276 13.103 30.6904 11.9134C30.322 12.0399 29.942 12.1242 29.5694 12.2422C29.4636 11.9092 29.382 11.5699 29.2677 11.2412C29.002 11.6447 28.7649 12.0567 28.2505 12.1695C27.917 12.2422 27.556 11.9935 27.3835 12.0873C27.2861 12.1568 27.2088 12.258 27.0892 12.3412C26.8373 12.5242 26.5151 12.582 26.2149 12.4982C25.8973 12.416 25.8729 12.4245 25.6178 12.6363C25.5638 12.6818 25.5065 12.7233 25.4464 12.7606C25.1733 12.9406 24.8254 12.965 24.5296 12.8249C24.0798 12.6141 23.7431 12.2675 23.4118 11.9103C22.4062 12.2369 21.3551 12.415 20.3283 12.6658C19.9857 12.5859 19.6591 12.4495 19.3618 12.2622C19.0622 11.7817 19.0104 11.1748 19.0972 10.6216L19.4571 10.2791C20.5548 9.94724 21.5943 9.71648 22.7153 9.48783C22.9132 9.44779 22.8762 9.47097 22.9408 9.68276C22.9947 9.84503 23.0466 10.0062 23.0879 10.1717C23.1736 10.3213 23.2615 10.472 23.3494 10.6205C23.3885 9.97569 23.2435 9.72596 23.09 9.13801C22.9842 8.7239 23.1387 8.61116 23.379 8.29505C23.5293 8.10223 23.6828 7.92205 23.9199 7.83775C24.5551 7.74292 24.9859 8.6649 25.168 9.14116C25.2738 9.41934 25.3659 9.70173 25.4855 9.97779C25.566 9.19596 25.3744 8.69651 25.0737 7.9958C24.9552 7.71974 25.0039 7.68707 25.2855 7.57433C25.8571 7.35727 26.2381 7.38467 26.5991 7.9094C26.6792 8.0154 26.7521 8.12664 26.8172 8.24237C26.887 8.45311 26.9421 8.65858 27.0194 8.87458C27.0966 9.09059 27.1856 9.30976 27.2819 9.52471C27.3422 8.84613 27.2628 8.44994 26.9791 7.8388C26.893 7.67765 26.8299 7.50528 26.7918 7.32671C26.7854 7.27508 26.7918 7.28562 26.8394 7.23715C27.3348 6.83675 28.0896 7.20343 28.369 7.6934C28.5119 7.94417 28.6146 8.35722 28.712 8.64172L28.8517 9.04949H28.9639C28.9978 8.10117 28.5913 7.34041 28.1944 6.51221C28.5765 6.41527 28.9607 6.32571 29.3514 6.2667L29.1089 6.05807C28.7208 6.03111 28.3377 5.95498 27.9689 5.83153C27.5656 5.65556 27.1422 5.52596 26.7526 5.31943C25.0187 4.47648 23.3515 3.34587 21.3857 3.12881C21.1666 2.19314 20.9803 1.25009 20.7591 0.314409L20.758 0.315463ZM8.04377 28.0106L34.4811 28.0275C39.3885 27.9959 38.438 18.2282 34.0947 18.2356C25.2608 18.2313 16.4278 18.2313 7.596 18.2356C1.79408 18.3725 1.69775 28.0138 8.04271 28.0127L8.04377 28.0106ZM13.3196 1.3839C14.0748 0.961599 14.8838 0.642616 15.7246 0.435584C15.8732 0.708865 16.006 0.990299 16.1226 1.27854C16.2486 1.57357 16.3608 1.87387 16.491 2.16996C16.6074 2.43549 16.7165 2.70523 16.8255 2.97497C16.1411 3.13737 15.4753 3.36934 14.8386 3.66725C14.3093 2.92124 13.8213 2.14888 13.3196 1.38496V1.3839ZM10.0381 4.00443C10.7051 3.27524 11.4505 2.62119 12.261 2.05405C12.7501 2.79163 13.2921 3.49866 13.6954 4.28471C13.1259 4.72305 12.5384 5.14979 12.0504 5.6819C11.3507 5.15506 10.6954 4.57974 10.0391 4.00443H10.0381ZM37.1455 5.26886C37.6059 7.13599 38.1437 8.98311 38.565 10.8608C38.6708 11.3307 38.6645 11.7965 38.0992 11.9145C37.4196 12.0335 37.2333 10.8028 37.1275 10.3466L37.119 10.3129C36.649 8.40674 36.1663 6.50483 35.7027 4.5966C35.5852 4.21095 35.221 3.03504 35.5206 2.71998C35.7323 2.50187 36.1557 2.50924 36.3748 2.71998C36.576 2.90965 36.6585 3.32058 36.7316 3.58717C36.884 4.14352 37.0089 4.70724 37.1465 5.26675L37.1455 5.26886ZM36.9422 10.9282C37.0205 11.316 37.2312 12.0314 36.757 12.2464C36.5061 12.3602 36.1981 12.3328 36.0245 12.101C35.8509 11.8692 35.7799 11.5183 35.7069 11.2507L35.601 10.8755C35.0887 8.99892 34.6875 7.09385 34.1889 5.21301C34.0905 4.88742 33.6829 3.54713 33.8195 3.2974C33.9772 3.0108 34.6399 2.81376 34.859 3.1678C35.0781 3.52184 35.2073 4.16775 35.311 4.58501C35.8403 6.70187 36.3939 8.81241 36.9338 10.9272L36.9422 10.9282ZM38.6624 4.64613C39.0858 6.20348 39.4288 7.77032 39.8797 9.3224C40.0152 9.78813 40.2333 10.4709 39.6161 10.6922C39.2149 10.8366 38.9355 10.6037 38.7873 10.2454C38.6391 9.88718 38.5544 9.38141 38.4644 8.99997C38.2457 8.08045 38.0159 7.16409 37.7753 6.2509C37.5922 5.40794 37.2968 4.56499 37.156 3.72204C37.0692 3.1952 37.3191 2.8675 37.8674 2.98446C38.2453 3.06454 38.3501 3.37327 38.4464 3.70307C38.5353 4.01286 38.5756 4.33529 38.6581 4.65139L38.6624 4.64613ZM38.9005 3.56715C41.0992 3.41752 42.7526 8.32034 40.3709 9.59004C39.903 7.57749 39.3832 5.57759 38.9005 3.56715ZM8.09669 7.14442C8.47036 6.36469 8.84509 5.58286 9.38495 4.90112C10.0254 5.44904 10.6901 5.97588 11.2946 6.57543C10.9182 7.02279 10.6049 7.51907 10.3631 8.0506C10.2508 8.29505 10.1369 8.54091 10.0211 8.78818C9.52891 8.51527 9.06844 8.18863 8.55505 7.9526C8.33275 7.81668 8.11469 7.67232 7.9051 7.51743C7.96861 7.3952 8.02894 7.27192 8.09034 7.14758L8.09669 7.14442Z" fill="black"/>
<path d="M8.81641 21.148C9.73601 21.1483 10.5273 21.7952 10.7064 22.6931C10.8854 23.5909 10.4024 24.4897 9.55272 24.8397C8.70301 25.1897 7.72323 24.8935 7.21256 24.1323C6.7019 23.371 6.80256 22.3567 7.453 21.7096C7.81432 21.3493 8.30498 21.1472 8.81641 21.148ZM10.9695 20.2776L11.6184 20.9235C11.7273 21.0321 11.7273 21.208 11.6184 21.3166L11.2161 21.717L11.1929 21.737C11.3007 21.9248 11.386 22.1246 11.4469 22.3323H12.0408C12.1146 22.3323 12.1854 22.3615 12.2376 22.4134C12.2899 22.4654 12.3192 22.5359 12.3192 22.6094V23.523C12.3192 23.6766 12.194 23.8012 12.0397 23.8012H11.4691C11.4131 24.0183 11.3306 24.2277 11.2236 24.4249L11.6173 24.8169C11.7262 24.9255 11.7262 25.1013 11.6173 25.2099L10.9684 25.8559C10.8594 25.9642 10.6827 25.9642 10.5736 25.8559L10.2042 25.4881C10.0006 25.6099 9.78218 25.7052 9.55422 25.7716V26.3195C9.55422 26.4731 9.4291 26.5977 9.27476 26.5977H8.36123C8.28739 26.5977 8.21657 26.5685 8.16434 26.5165C8.11214 26.4645 8.08282 26.394 8.08283 26.3205V25.7937C7.84432 25.7326 7.61505 25.6401 7.40113 25.5187L7.02005 25.898C6.91096 26.0064 6.7343 26.0064 6.62521 25.898L5.97632 25.2521C5.86743 25.1435 5.86743 24.9677 5.97632 24.8591L6.35739 24.4797C6.23538 24.2668 6.14247 24.0386 6.08111 23.8012H5.55184C5.47799 23.8012 5.40717 23.772 5.35495 23.72C5.30274 23.668 5.27342 23.5975 5.27344 23.524V22.6105C5.27344 22.4569 5.39855 22.3323 5.5529 22.3323H6.10334C6.17002 22.1054 6.26572 21.888 6.38809 21.6853L6.01866 21.3176C5.90977 21.209 5.90977 21.0332 6.01866 20.9246L6.66755 20.2787C6.77664 20.1703 6.9533 20.1703 7.06239 20.2787L7.45617 20.6706C7.65429 20.5641 7.86473 20.482 8.08283 20.4262V19.8583C8.08283 19.7046 8.20795 19.5801 8.36229 19.5801H9.28006C9.3539 19.5801 9.42472 19.6092 9.47695 19.6612C9.52915 19.7132 9.55847 19.7837 9.55845 19.8572V20.423C9.55845 20.4315 9.55845 20.4399 9.55845 20.4483C9.7671 20.509 9.96784 20.5938 10.1565 20.7012L10.1766 20.678L10.5789 20.2776C10.688 20.1692 10.8646 20.1692 10.9737 20.2776H10.9695ZM11.3612 21.1206L10.7726 20.5347L10.4307 20.8751L10.4593 20.9035C10.6586 21.0547 10.8367 21.2319 10.9886 21.4304L11.0171 21.4588L11.3591 21.1185L11.3612 21.1206ZM11.9963 23.4819V22.6526H11.5189C11.5644 22.9269 11.5687 23.2064 11.5316 23.4819H11.9963ZM10.7694 25.5998L11.358 25.014L11.0478 24.7052C10.887 24.9322 10.6929 25.1339 10.472 25.3037L10.7684 25.5988L10.7694 25.5998ZM8.39722 26.2773H9.2303V25.8443C8.95477 25.8895 8.67401 25.8938 8.39722 25.8569V26.2784V26.2773ZM6.22613 25.0561L6.81469 25.642L7.11743 25.3406C6.893 25.1756 6.69462 24.9781 6.52888 24.7547L6.22613 25.0561ZM5.591 22.6526V23.4819H6.01442C5.97731 23.2064 5.98159 22.9269 6.02713 22.6526H5.591ZM6.86127 20.5347L6.27271 21.1206L6.56911 21.4156C6.73965 21.1957 6.94231 21.0025 7.17036 20.8424L6.86021 20.5337L6.86127 20.5347ZM9.23348 19.9025H8.4004V20.3651C8.67718 20.3281 8.95796 20.3324 9.23348 20.3777V19.9025ZM10.4402 21.4546C9.64559 20.6639 8.40054 20.542 7.4664 21.1635C6.53225 21.7849 6.16916 22.9767 6.59915 24.0099C7.02913 25.0432 8.13245 25.6303 9.23444 25.4121C10.3364 25.194 11.1302 24.2315 11.1304 23.1131C11.1312 22.4909 10.8828 21.894 10.4402 21.4546ZM9.87708 22.0152C9.37122 21.5119 8.57862 21.4345 7.98414 21.8303C7.38965 22.2261 7.1589 22.9848 7.43304 23.6424C7.70718 24.2999 8.40984 24.6731 9.11118 24.5336C9.81252 24.3941 10.3171 23.7808 10.3164 23.0688C10.3165 22.6734 10.1584 22.2943 9.87708 22.0152Z" fill="black"/>
<path d="M16.5394 21.1499C17.459 21.1503 18.2503 21.7972 18.4294 22.695C18.6084 23.5929 18.1254 24.4916 17.2757 24.8416C16.426 25.1917 15.4462 24.8955 14.9355 24.1342C14.4249 23.3729 14.5255 22.3586 15.176 21.7115C15.5373 21.3513 16.028 21.1491 16.5394 21.1499ZM18.6925 20.2796L19.3414 20.9255C19.4503 21.0341 19.4503 21.2099 19.3414 21.3185L18.9391 21.7189L18.9158 21.7389C19.0237 21.9268 19.109 22.1266 19.1699 22.3343H19.7637C19.8376 22.3343 19.9084 22.3634 19.9606 22.4154C20.0128 22.4674 20.0422 22.5379 20.0421 22.6114V23.5249C20.0421 23.6786 19.917 23.8031 19.7627 23.8031H19.1921C19.1361 24.0202 19.0536 24.2297 18.9465 24.4269L19.3403 24.8189C19.4492 24.9275 19.4492 25.1033 19.3403 25.2119L18.6914 25.8578C18.5823 25.9662 18.4057 25.9662 18.2966 25.8578L17.9272 25.4901C17.7236 25.6119 17.5052 25.7071 17.2772 25.7735V26.3214C17.2772 26.4751 17.1521 26.5996 16.9977 26.5996H16.08C16.0061 26.5996 15.9353 26.5704 15.8831 26.5185C15.8309 26.4665 15.8016 26.396 15.8016 26.3225V25.7956C15.5631 25.7346 15.3338 25.6421 15.1199 25.5206L14.7388 25.9C14.6297 26.0083 14.453 26.0083 14.344 25.9L13.6951 25.254C13.5862 25.1455 13.5862 24.9696 13.6951 24.861L14.0761 24.4817C13.9541 24.2687 13.8612 24.0405 13.7999 23.8031H13.2706C13.1967 23.8031 13.1259 23.7739 13.0737 23.722C13.0215 23.67 12.9922 23.5995 12.9922 23.526V22.6124C12.9922 22.4588 13.1173 22.3343 13.2716 22.3343H13.8221C13.8888 22.1074 13.9845 21.8899 14.1068 21.6873L13.7374 21.3196C13.6285 21.211 13.6285 21.0351 13.7374 20.9265L14.3863 20.2806C14.4954 20.1722 14.672 20.1722 14.7811 20.2806L15.1749 20.6726C15.373 20.566 15.5835 20.4839 15.8016 20.4281V19.8602C15.8016 19.7066 15.9267 19.582 16.081 19.582H16.9988C17.0726 19.582 17.1435 19.6112 17.1957 19.6632C17.2479 19.7151 17.2772 19.7856 17.2772 19.8592V20.425C17.2772 20.4334 17.2772 20.4418 17.2772 20.4503C17.4858 20.5109 17.6866 20.5958 17.8753 20.7032L17.8954 20.68L18.2976 20.2796C18.4067 20.1712 18.5834 20.1712 18.6925 20.2796ZM19.0842 21.1225L18.4956 20.5367L18.1537 20.877L18.1823 20.9055C18.3816 21.0567 18.5596 21.2339 18.7115 21.4323L18.7401 21.4608L19.082 21.1204L19.0842 21.1225ZM19.7193 23.4838V22.6546H19.2419C19.2874 22.9289 19.2917 23.2083 19.2546 23.4838H19.7193ZM18.4924 25.6018L19.081 25.0159L18.7708 24.7072C18.6099 24.9342 18.4158 25.1359 18.195 25.3057L18.4914 25.6007L18.4924 25.6018ZM16.1202 26.2793H16.9522V25.8462C16.677 25.8914 16.3966 25.8956 16.1202 25.8589V26.2803V26.2793ZM13.9491 25.0581L14.5377 25.6439L14.8404 25.3426C14.616 25.1776 14.4176 24.9801 14.2519 24.7567L13.9491 25.0581ZM13.314 22.6546V23.4838H13.7374C13.7003 23.2083 13.7046 22.9288 13.7501 22.6546H13.314ZM14.5842 20.5367L13.9957 21.1225L14.2921 21.4176C14.4626 21.1977 14.6653 21.0045 14.8933 20.8444L14.5832 20.5356L14.5842 20.5367ZM16.9565 19.9045H16.1234V20.367C16.4002 20.3301 16.6809 20.3343 16.9565 20.3797V19.9045ZM18.1632 21.4565C17.3686 20.6659 16.1235 20.544 15.1894 21.1654C14.2552 21.7869 13.8921 22.9786 14.3221 24.0119C14.7521 25.0451 15.8554 25.6322 16.9574 25.4141C18.0594 25.196 18.8532 24.2335 18.8534 23.1151C18.8542 22.4928 18.6058 21.8959 18.1632 21.4565ZM17.6001 22.0171C17.0942 21.5138 16.3016 21.4364 15.7071 21.8322C15.1126 22.228 14.8819 22.9868 15.156 23.6443C15.4302 24.3018 16.1328 24.675 16.8342 24.5355C17.5355 24.396 18.0401 23.7827 18.0394 23.0708C18.0395 22.6754 17.8814 22.2962 17.6001 22.0171Z" fill="black"/>
<path d="M24.4577 21.0326C25.3773 21.0329 26.1686 21.6798 26.3477 22.5777C26.5267 23.4756 26.0437 24.3743 25.194 24.7243C24.3443 25.0743 23.3645 24.7781 22.8538 24.0169C22.3432 23.2556 22.4438 22.2413 23.0943 21.5942C23.4556 21.2339 23.9463 21.0318 24.4577 21.0326ZM26.6108 20.1622L27.2597 20.8081C27.3686 20.9167 27.3686 21.0926 27.2597 21.2012L26.8574 21.6016L26.8341 21.6216C26.942 21.8094 27.0273 22.0092 27.0882 22.2169H27.682C27.7559 22.2169 27.8267 22.2461 27.8789 22.2981C27.9311 22.35 27.9605 22.4205 27.9604 22.494V23.4076C27.9604 23.5612 27.8353 23.6858 27.681 23.6858H27.1104C27.0544 23.9029 26.9719 24.1123 26.8648 24.3096L27.2586 24.7015C27.3675 24.8101 27.3675 24.986 27.2586 25.0946L26.6097 25.7405C26.5006 25.8488 26.324 25.8488 26.2149 25.7405L25.8455 25.3727C25.6419 25.4945 25.4235 25.5898 25.1955 25.6562V26.2062C25.1955 26.3598 25.0704 26.4844 24.916 26.4844H23.9983C23.9244 26.4844 23.8536 26.4552 23.8014 26.4032C23.7492 26.3513 23.7199 26.2808 23.7199 26.2072V25.6804C23.4814 25.6193 23.2521 25.5269 23.0382 25.4054L22.6529 25.7847C22.5438 25.8931 22.3671 25.8931 22.258 25.7847L21.6091 25.1388C21.5002 25.0302 21.5002 24.8544 21.6091 24.7458L21.9902 24.3665C21.8682 24.1535 21.7753 23.9253 21.7139 23.6879H21.1846C21.1108 23.6879 21.04 23.6587 20.9878 23.6067C20.9356 23.5548 20.9062 23.4843 20.9063 23.4108V22.4972C20.9063 22.3436 21.0314 22.219 21.1857 22.219H21.7362C21.8028 21.9921 21.8985 21.7747 22.0209 21.5721L21.6515 21.2043C21.5426 21.0957 21.5426 20.9199 21.6515 20.8113L22.3004 20.1654C22.4095 20.057 22.5861 20.057 22.6952 20.1654L23.089 20.5574C23.2871 20.4508 23.4975 20.3687 23.7156 20.3129V19.745C23.7156 19.5913 23.8408 19.4668 23.9951 19.4668H24.9129C24.9867 19.4668 25.0575 19.496 25.1098 19.5479C25.162 19.5999 25.1913 19.6704 25.1913 19.7439V20.3055C25.1913 20.314 25.1913 20.3224 25.1913 20.3308C25.3999 20.3915 25.6007 20.4763 25.7894 20.5837L25.8095 20.5605L26.2117 20.1601C26.3208 20.0517 26.4975 20.0517 26.6066 20.1601L26.6108 20.1622ZM27.0025 21.0052L26.4139 20.4193L26.072 20.7597L26.1006 20.7881C26.2999 20.9393 26.4779 21.1165 26.6298 21.315L26.6584 21.3434L27.0003 21.0031L27.0025 21.0052ZM27.6376 23.3665V22.5372H27.1623C27.2078 22.8115 27.2121 23.091 27.175 23.3665H27.6376ZM26.4107 25.4844L26.9993 24.8986L26.6891 24.5898C26.5283 24.8168 26.3342 25.0186 26.1133 25.1883L26.4097 25.4834L26.4107 25.4844ZM24.0385 26.1619H24.8758V25.7289C24.6006 25.774 24.3202 25.7783 24.0438 25.7415V26.163L24.0385 26.1619ZM21.8706 24.9418L22.4591 25.5276L22.7619 25.2263C22.5375 25.0613 22.3391 24.8638 22.1733 24.6404L21.8706 24.9418ZM21.2355 22.5383V23.3612H21.6589C21.6218 23.0857 21.6261 22.8062 21.6716 22.532L21.2355 22.5383ZM22.5057 20.4204L21.9119 21.0052L22.2083 21.3002C22.3788 21.0804 22.5815 20.8871 22.8095 20.727L22.4994 20.4183L22.5057 20.4204ZM24.8779 19.7882H24.0459V20.2507C24.3224 20.2139 24.6028 20.2181 24.8779 20.2634V19.7882ZM26.0847 21.3403C25.2901 20.5496 24.045 20.4277 23.1109 21.0492C22.1767 21.6706 21.8136 22.8623 22.2436 23.8956C22.6736 24.9288 23.7769 25.5159 24.8789 25.2978C25.9809 25.0797 26.7747 24.1172 26.7749 22.9988C26.7757 22.3765 26.5273 21.7797 26.0847 21.3403ZM25.5215 21.9008C25.0157 21.3975 24.2231 21.3201 23.6286 21.7159C23.0341 22.1117 22.8034 22.8705 23.0775 23.528C23.3516 24.1856 24.0543 24.5587 24.7556 24.4192C25.457 24.2797 25.9616 23.6664 25.9608 22.9545C25.961 22.5591 25.8029 22.1799 25.5215 21.9008Z" fill="black"/>
<path d="M32.2844 21.0341C33.204 21.0345 33.9953 21.6814 34.1744 22.5792C34.3535 23.4771 33.8705 24.3758 33.0207 24.7258C32.171 25.0758 31.1912 24.7796 30.6806 24.0184C30.1699 23.2571 30.2706 22.2428 30.921 21.5957C31.2823 21.2354 31.773 21.0333 32.2844 21.0341ZM34.4375 20.1637L35.0864 20.8097C35.1953 20.9183 35.1953 21.0941 35.0864 21.2027L34.6842 21.6031L34.6609 21.6231C34.7687 21.8109 34.854 22.0108 34.9149 22.2184H35.5088C35.5826 22.2184 35.6534 22.2476 35.7057 22.2996C35.7579 22.3516 35.7872 22.4221 35.7872 22.4956V23.4091C35.7872 23.5627 35.6621 23.6873 35.5077 23.6873H34.9372C34.8811 23.9044 34.7987 24.1139 34.6916 24.3111L35.0854 24.703C35.1942 24.8116 35.1942 24.9875 35.0854 25.0961L34.4365 25.742C34.3274 25.8504 34.1507 25.8504 34.0416 25.742L33.6722 25.3742C33.4686 25.4961 33.2502 25.5913 33.0222 25.6577V26.2077C33.0222 26.3613 32.8971 26.4859 32.7428 26.4859H31.825C31.7512 26.4859 31.6804 26.4567 31.6281 26.4047C31.5745 26.353 31.544 26.282 31.5434 26.2077V25.6809C31.3049 25.6198 31.0757 25.5273 30.8617 25.4059L30.4849 25.7862C30.3758 25.8946 30.1991 25.8946 30.0901 25.7862L29.4412 25.1403C29.3323 25.0317 29.3323 24.8559 29.4412 24.7473L29.8222 24.368C29.7002 24.155 29.6073 23.9268 29.546 23.6894H29.0167C28.9428 23.6894 28.872 23.6602 28.8198 23.6083C28.7676 23.5563 28.7383 23.4858 28.7383 23.4123V22.4987C28.7383 22.3451 28.8634 22.2206 29.0177 22.2206H29.5682C29.6337 21.9931 29.7283 21.7749 29.8498 21.5715L29.4803 21.2037C29.3714 21.0951 29.3714 20.9193 29.4803 20.8107L30.1292 20.1648C30.2383 20.0564 30.415 20.0564 30.5241 20.1648L30.9178 20.5568C31.1154 20.4485 31.3255 20.3646 31.5434 20.307V19.7391C31.5434 19.5855 31.6686 19.4609 31.8229 19.4609H32.7407C32.8145 19.4609 32.8853 19.4901 32.9376 19.5421C32.9898 19.5941 33.0191 19.6646 33.0191 19.7381V20.307C33.0191 20.3155 33.0191 20.3239 33.0191 20.3323C33.2277 20.393 33.4284 20.4779 33.6171 20.5852L33.6373 20.562L34.0395 20.1616C34.1486 20.0533 34.3253 20.0533 34.4343 20.1616L34.4375 20.1637ZM34.8292 21.0067L34.2406 20.4208L33.8987 20.7612L33.9273 20.7896C34.1266 20.9409 34.3047 21.1181 34.4566 21.3165L34.4852 21.3449L34.8271 21.0046L34.8292 21.0067ZM35.4643 23.368V22.5388H34.9869C35.0324 22.813 35.0367 23.0925 34.9996 23.368H35.4643ZM34.2375 25.4859L34.826 24.9001L34.5159 24.5914C34.355 24.8183 34.1609 25.0201 33.94 25.1898L34.2364 25.4849L34.2375 25.4859ZM31.8652 26.1635H32.6983V25.7304C32.4228 25.7756 32.142 25.7799 31.8652 25.743V26.1645V26.1635ZM29.6973 24.9433L30.2859 25.5291L30.5886 25.2278C30.3642 25.0628 30.1658 24.8653 30.0001 24.6419L29.6973 24.9433ZM29.0622 22.5398V23.3627H29.4856C29.4485 23.0872 29.4528 22.8078 29.4983 22.5335L29.0622 22.5398ZM30.3325 20.4219L29.7439 21.0067L30.0403 21.3017C30.2109 21.0819 30.4135 20.8887 30.6416 20.7285L30.3314 20.4198L30.3325 20.4219ZM32.7047 19.7897H31.8716V20.2523C32.1484 20.2153 32.4291 20.2196 32.7047 20.2649V19.7897ZM33.9114 21.3418C33.1168 20.5511 31.8717 20.4292 30.9376 21.0507C30.0034 21.6721 29.6404 22.8638 30.0703 23.8971C30.5003 24.9304 31.6036 25.5174 32.7056 25.2993C33.8076 25.0812 34.6014 24.1187 34.6016 23.0003C34.6024 22.3781 34.354 21.7812 33.9114 21.3418ZM33.343 21.8981C32.8371 21.3948 32.0445 21.3174 31.45 21.7132C30.8556 22.109 30.6248 22.8678 30.8989 23.5253C31.1731 24.1829 31.8757 24.556 32.5771 24.4165C33.2784 24.277 33.7831 23.6637 33.7823 22.9518C33.7824 22.5564 33.6243 22.1772 33.343 21.8981Z" fill="black"/>
</mask>
<g mask="url(#mask0_1501_723)">
<rect x="-3.72461" y="-2.05078" width="49.9409" height="33.359" fill="white"/>
</g>
</svg>
