<svg width="24" height="24" viewBox="0 0 24 24" fill="none" xmlns="http://www.w3.org/2000/svg">
<g clip-path="url(#clip0_470_1217)">
<path d="M23.8728 17.5187C23.8437 17.4561 23.8166 17.4041 23.7915 17.3625C23.3751 16.6126 22.5793 15.6921 21.4047 14.6007L21.3799 14.5757L21.3675 14.5635L21.3549 14.5509H21.3423C20.8093 14.0427 20.4717 13.701 20.3303 13.5261C20.0716 13.1929 20.0137 12.8556 20.1551 12.5138C20.2549 12.2556 20.6301 11.7102 21.2797 10.877C21.6214 10.4355 21.892 10.0816 22.0918 9.81492C23.5331 7.8988 24.158 6.67437 23.9663 6.14116L23.8919 6.01655C23.8418 5.94154 23.7127 5.87291 23.5047 5.81032C23.2962 5.74787 23.0297 5.73754 22.7047 5.77916L19.106 5.80402C19.0477 5.78336 18.9645 5.78529 18.856 5.81032C18.7477 5.83536 18.6935 5.84792 18.6935 5.84792L18.6309 5.87921L18.5812 5.91681C18.5395 5.94167 18.4937 5.98539 18.4436 6.04789C18.3939 6.11017 18.3523 6.18326 18.319 6.26655C17.9272 7.27455 17.4817 8.21174 16.9818 9.07806C16.6735 9.59465 16.3904 10.0423 16.1319 10.4214C15.8737 10.8003 15.6571 11.0795 15.4823 11.2585C15.3073 11.4376 15.1493 11.5811 15.0074 11.6896C14.8657 11.798 14.7575 11.8438 14.6827 11.8271C14.6076 11.8103 14.5369 11.7937 14.47 11.777C14.3534 11.702 14.2597 11.6 14.189 11.4709C14.118 11.3418 14.0702 11.1793 14.0452 10.9835C14.0204 10.7876 14.0057 10.6191 14.0015 10.4774C13.9976 10.3359 13.9994 10.1358 14.0078 9.87756C14.0165 9.6192 14.0204 9.44439 14.0204 9.35274C14.0204 9.03613 14.0265 8.69252 14.0389 8.32181C14.0515 7.9511 14.0617 7.65738 14.0703 7.441C14.0788 7.22439 14.0827 6.99523 14.0827 6.75363C14.0827 6.51204 14.068 6.32257 14.0389 6.18506C14.0102 6.04771 13.9661 5.9144 13.9081 5.78516C13.8496 5.65604 13.7641 5.55617 13.6519 5.48526C13.5395 5.41445 13.3997 5.35825 13.2333 5.3165C12.7917 5.21658 12.2295 5.16253 11.5462 5.15412C9.99683 5.13749 9.00126 5.23754 8.55974 5.45415C8.3848 5.54566 8.22649 5.6707 8.08495 5.82888C7.93496 6.01222 7.91404 6.11227 8.02232 6.12873C8.52223 6.20361 8.87613 6.38275 9.08442 6.66597L9.15948 6.81605C9.21786 6.92433 9.27616 7.11603 9.3345 7.39088C9.39275 7.66574 9.43035 7.96979 9.44689 8.30286C9.48847 8.91109 9.48847 9.43174 9.44689 9.86486C9.40518 10.2982 9.36579 10.6355 9.3282 10.8771C9.2906 11.1187 9.23441 11.3144 9.15948 11.4643C9.08442 11.6143 9.03448 11.7059 9.00944 11.7392C8.98445 11.7725 8.96362 11.7934 8.94708 11.8016C8.8388 11.8431 8.72618 11.8643 8.60963 11.8643C8.4929 11.8643 8.35136 11.8059 8.18478 11.6892C8.01825 11.5725 7.84542 11.4122 7.66628 11.2081C7.48714 11.0039 7.28511 10.7186 7.0601 10.3521C6.83527 9.98562 6.60199 9.55245 6.3604 9.05263L6.16052 8.69015C6.03556 8.45696 5.86487 8.11742 5.64827 7.67182C5.43153 7.22606 5.23996 6.79486 5.07343 6.37833C5.00686 6.20339 4.90685 6.07021 4.77358 5.97856L4.71104 5.94097C4.66946 5.9077 4.60272 5.87238 4.51116 5.83474C4.41946 5.79715 4.32379 5.77019 4.22374 5.7536L0.799886 5.77846C0.450013 5.77846 0.21262 5.85772 0.0876216 6.01603L0.0375959 6.09091C0.0126049 6.13262 0 6.19924 0 6.29093C0 6.38258 0.024991 6.49506 0.0750167 6.62824C0.574836 7.80295 1.11838 8.93586 1.70564 10.0272C2.29291 11.1184 2.80323 11.9975 3.23631 12.6635C3.66947 13.3301 4.11099 13.9591 4.56087 14.5504C5.01076 15.1419 5.30855 15.521 5.45425 15.6876C5.60012 15.8544 5.7147 15.9791 5.79799 16.0624L6.11045 16.3623C6.31037 16.5622 6.60396 16.8017 6.99135 17.0807C7.37882 17.3599 7.80778 17.6348 8.27845 17.9058C8.7492 18.1763 9.29686 18.397 9.92172 18.5678C10.5465 18.7387 11.1546 18.8073 11.7461 18.7742H13.1832C13.4746 18.749 13.6954 18.6574 13.8455 18.4992L13.8952 18.4366C13.9286 18.3868 13.9599 18.3096 13.9888 18.2056C14.0181 18.1015 14.0326 17.9868 14.0326 17.862C14.0241 17.5039 14.0513 17.1811 14.1136 16.8937C14.1759 16.6064 14.2469 16.3898 14.3263 16.244C14.4057 16.0982 14.4952 15.9752 14.5949 15.8755C14.6947 15.7756 14.7659 15.7151 14.8077 15.6942C14.8491 15.6733 14.8823 15.6591 14.9073 15.6505C15.1072 15.5839 15.3425 15.6484 15.6135 15.8444C15.8843 16.0401 16.1383 16.2819 16.3758 16.5692C16.6133 16.8567 16.8985 17.1793 17.2317 17.5375C17.5651 17.8957 17.8566 18.1621 18.1064 18.3373L18.3562 18.4872C18.523 18.5873 18.7396 18.6789 19.0063 18.7622C19.2724 18.8454 19.5056 18.8663 19.7058 18.8246L22.9046 18.7748C23.221 18.7748 23.4672 18.7224 23.6419 18.6184C23.8168 18.5143 23.9208 18.3996 23.9543 18.2748C23.9877 18.1499 23.9895 18.0082 23.9607 17.8497C23.931 17.6917 23.9018 17.5812 23.8728 17.5187Z" fill="#A1A1A1"/>
</g>
<defs>
<clipPath id="clip0_470_1217">
<rect width="24" height="24" fill="white"/>
</clipPath>
</defs>
</svg>