<svg width="24" height="25" viewBox="0 0 24 25" fill="none" xmlns="http://www.w3.org/2000/svg">
<path d="M2 12.1758C2 6.65292 6.47714 2.17578 12 2.17578C17.5229 2.17578 22 6.65292 22 12.1758C22 17.6986 17.5229 22.1758 12 22.1758C6.47714 22.1758 2 17.6986 2 12.1758Z" fill="white"/>
<path fill-rule="evenodd" clip-rule="evenodd" d="M11.7976 2.17578C11.7504 6.28985 11.4814 8.59228 9.94893 10.1247C8.4165 11.6571 6.11407 11.9262 2 11.9734V12.5705C6.11407 12.6177 8.4165 12.8867 9.94893 14.4191C11.4573 15.9275 11.7416 18.182 11.7953 22.1758H12.3971C12.4506 18.182 12.735 15.9275 14.2434 14.4191C15.7517 12.9107 18.0062 12.6264 22 12.5729V11.971C18.0062 11.9174 15.7517 11.6331 14.2434 10.1247C12.7109 8.59228 12.4419 6.28985 12.3947 2.17578H11.7976Z" fill="black"/>
</svg>